<svg width="26" height="27" viewBox="0 0 26 27" fill="none" xmlns="http://www.w3.org/2000/svg">
<path d="M4.33341 22.5264C3.73758 22.5264 3.22769 22.3145 2.80375 21.8905C2.37908 21.4659 2.16675 20.9556 2.16675 20.3598V7.35978C2.16675 6.76395 2.37908 6.25406 2.80375 5.83012C3.22769 5.40545 3.73758 5.19312 4.33341 5.19312H21.6667C22.2626 5.19312 22.7728 5.40545 23.1975 5.83012C23.6214 6.25406 23.8334 6.76395 23.8334 7.35978V20.3598C23.8334 20.9556 23.6214 21.4659 23.1975 21.8905C22.7728 22.3145 22.2626 22.5264 21.6667 22.5264H4.33341ZM13.0001 14.7535C13.0904 14.7535 13.185 14.7398 13.2839 14.7124C13.3836 14.6856 13.4786 14.6452 13.5688 14.591L21.2334 9.79728C21.3779 9.707 21.4862 9.59434 21.5584 9.45928C21.6306 9.3235 21.6667 9.17437 21.6667 9.01187C21.6667 8.65075 21.5133 8.37992 21.2063 8.19937C20.8994 8.01881 20.5834 8.02784 20.2584 8.22645L13.0001 12.7764L5.74175 8.22645C5.41675 8.02784 5.10078 8.02314 4.79383 8.21237C4.48689 8.40231 4.33341 8.66881 4.33341 9.01187C4.33341 9.19242 4.36953 9.35023 4.44175 9.48528C4.51397 9.62106 4.6223 9.72506 4.76675 9.79728L12.4313 14.591C12.5216 14.6452 12.6166 14.6856 12.7162 14.7124C12.8152 14.7398 12.9098 14.7535 13.0001 14.7535Z" fill="white"/>
</svg>
